<svg width="100" height="100" viewBox="0 0 100 100" xmlns="http://www.w3.org/2000/svg">
  <defs>
    <pattern id="floral-pattern" patternUnits="userSpaceOnUse" width="100" height="100">
      <rect width="100" height="100" fill="none" />
      
      <!-- Flower 1 -->
      <g opacity="0.1" fill="#FFB6C1">
        <circle cx="20" cy="20" r="8" />
        <circle cx="15" cy="15" r="3" />
        <circle cx="25" cy="15" r="3" />
        <circle cx="15" cy="25" r="3" />
        <circle cx="25" cy="25" r="3" />
      </g>
      
      <!-- Flower 2 -->
      <g opacity="0.1" fill="#E6E6FA">
        <circle cx="50" cy="50" r="10" />
        <circle cx="42" cy="42" r="4" />
        <circle cx="58" cy="42" r="4" />
        <circle cx="42" cy="58" r="4" />
        <circle cx="58" cy="58" r="4" />
      </g>
      
      <!-- Flower 3 -->
      <g opacity="0.1" fill="#98FB98">
        <circle cx="80" cy="80" r="8" />
        <circle cx="75" cy="75" r="3" />
        <circle cx="85" cy="75" r="3" />
        <circle cx="75" cy="85" r="3" />
        <circle cx="85" cy="85" r="3" />
      </g>
      
      <!-- Small decorative elements -->
      <circle cx="10" cy="50" r="2" opacity="0.1" fill="#FFD700" />
      <circle cx="30" cy="70" r="1.5" opacity="0.1" fill="#FFB6C1" />
      <circle cx="60" cy="10" r="2" opacity="0.1" fill="#E6E6FA" />
      <circle cx="90" cy="40" r="1.5" opacity="0.1" fill="#98FB98" />
      
      <!-- Swirls -->
      <path d="M5,95 Q10,85 15,90 T25,85" stroke="#FFB6C1" stroke-width="1" fill="none" opacity="0.1" />
      <path d="M70,30 Q80,20 85,25 T95,15" stroke="#E6E6FA" stroke-width="1" fill="none" opacity="0.1" />
    </pattern>
  </defs>
  
  <rect width="100" height="100" fill="url(#floral-pattern)" />
</svg>
